HIERARCHY
ROOT Hips
{
    OFFSET 0.000000 0.000000 0.000000
    CHANNELS 6 Xposition Yposition Zposition Zrotation Yrotation Xrotation
    JOINT LeftUpLeg
    {
        OFFSET 9.162498 -10.205075 3.799697
        CHANNELS 3 Zrotation Yrotation Xrotation
        JOINT LeftLeg
        {
            OFFSET 14.513953 -39.876781 0.000000
            CHANNELS 3 Zrotation Yrotation Xrotation
            JOINT LeftFoot
            {
                OFFSET 14.224848 -39.082561 0.000000
                CHANNELS 3 Zrotation Yrotation Xrotation
                JOINT LeftToeBase
                {
                    OFFSET 1.314863 -3.612473 11.865319
                    CHANNELS 3 Zrotation Yrotation Xrotation
                    End Site
                    {
                        OFFSET 0.000000 0.000000 0.000000
                    }
                }
            }
        }
    }
    JOINT RightUpLeg
    {
        OFFSET -8.357156 -10.205075 3.799697
        CHANNELS 3 Zrotation Yrotation Xrotation
        JOINT RightLeg
        {
            OFFSET -14.859335 -40.825722 0.000000
            CHANNELS 3 Zrotation Yrotation Xrotation
            JOINT RightFoot
            {
                OFFSET -14.380747 -39.510799 0.000000
                CHANNELS 3 Zrotation Yrotation Xrotation
                JOINT RightToeBase
                {
                    OFFSET -1.301994 -3.577195 11.975215
                    CHANNELS 3 Zrotation Yrotation Xrotation
                    End Site
                    {
                        OFFSET 0.000000 0.000000 0.000000
                    }
                }
            }
        }
    }
    JOINT Spine
    {
        OFFSET -0.118984 11.716251 -0.958476
        CHANNELS 3 Zrotation Yrotation Xrotation
        JOINT Spine1
        {
            OFFSET 0.286171 11.765131 -0.177291
            CHANNELS 3 Zrotation Yrotation Xrotation
            JOINT Neck1
            {
                OFFSET -0.605701 9.054070 1.770648
                CHANNELS 3 Zrotation Yrotation Xrotation
                JOINT Head
                {
                    OFFSET 0.474750 9.351585 -1.739717
                    CHANNELS 3 Zrotation Yrotation Xrotation
                    End Site
                    {
                        OFFSET 0.000000 0.000000 0.000000
                    }
                }
            }
            JOINT LeftShoulder
            {
                OFFSET 0.000000 0.000000 0.000000
                CHANNELS 3 Zrotation Yrotation Xrotation
                JOINT LeftArm
                {
                    OFFSET 19.886068 4.132773 -3.087148
                    CHANNELS 3 Zrotation Yrotation Xrotation
                    JOINT LeftForeArm
                    {
                        OFFSET 30.054285 -0.000000 -0.000000
                        CHANNELS 3 Zrotation Yrotation Xrotation
                        JOINT LeftHand
                        {
                            OFFSET 19.665203 -0.000000 -0.000000
                            CHANNELS 3 Zrotation Yrotation Xrotation
                            End Site
                            {
                                OFFSET 0.000000 0.000000 0.000000
                            }
                        }
                    }
                }
            }
            JOINT RightShoulder
            {
                OFFSET 0.000000 0.000000 0.000000
                CHANNELS 3 Zrotation Yrotation Xrotation
                JOINT RightArm
                {
                    OFFSET -19.290640 5.282707 -0.565512
                    CHANNELS 3 Zrotation Yrotation Xrotation
                    JOINT RightForeArm
                    {
                        OFFSET -30.117897 -0.000000 -0.000000
                        CHANNELS 3 Zrotation Yrotation Xrotation
                        JOINT RightHand
                        {
                            OFFSET -20.553181 -0.000000 -0.000000
                            CHANNELS 3 Zrotation Yrotation Xrotation
                            End Site
                            {
                                OFFSET 0.000000 0.000000 0.000000
                            }
                        }
                    }
                }
            }
        }
    }
}
MOTION
Frames: 17
Frame Time: 0.016667
6.381558 95.812561 3.585323 0.301200 -6.332802 7.486200 -15.006400 -5.897002 -4.973299 0.584400 4.894901 13.609007 -0.428801 14.619009 -15.013009 1.319000 -7.273801 -20.529209 11.740603 9.964201 -16.868710 -1.913801 -8.684208 24.812418 -0.504300 -3.477801 -15.137115 -0.032200 -1.158400 3.184801 -0.836184 -5.382030 4.691841 6.662704 -1.444700 -1.809601 1.338206 -19.089006 -3.536964 3.507500 -5.810200 10.606899 0.000000 0.000000 0.000000 -85.502510 -4.471294 28.225100 16.848410 -26.657499 -4.019103 0.000000 0.000000 8.293696 0.000000 0.000000 0.000000 77.213997 -0.712699 15.815906 -17.945711 28.087606 -4.523701 0.000000 0.000000 17.947701 
6.557100 95.817070 3.562181 0.473800 -6.530303 7.547003 -15.307803 -5.759702 -5.168002 0.586100 4.901902 13.629006 -0.444200 14.680500 -14.869987 1.388501 -7.455304 -21.071407 11.411906 10.268206 -16.881205 -1.901198 -8.657300 24.729000 -0.496000 -3.661200 -15.148600 -0.023800 -0.995600 2.736701 -1.073283 -5.327302 4.645708 6.728402 -1.430601 -1.808901 1.280174 -19.001539 -3.686384 3.594798 -5.795000 10.657203 0.000000 0.000000 0.000000 -85.635101 -4.265999 27.648197 16.739805 -26.513508 -3.970503 0.000000 0.000000 8.508000 0.000000 0.000000 0.000000 77.246826 -0.823498 16.005806 -18.086700 28.268103 -4.590201 0.000000 0.000000 17.751101 
6.773844 95.818771 3.566132 0.346700 -6.603902 7.553800 -15.307506 -5.524704 -5.317105 0.603700 4.973400 13.832599 -0.409000 14.404195 -14.914000 1.390000 -7.459303 -21.083300 11.417500 10.214106 -16.820606 -1.876601 -8.604203 24.564802 -0.483200 -3.640003 -14.969812 -0.024000 -1.000100 2.749200 -0.863301 -5.434148 4.696494 6.573400 -1.453000 -1.953601 1.278579 -18.823181 -3.564304 3.636802 -5.746100 10.606696 0.000000 0.000000 0.000000 -85.596909 -4.175099 27.304592 16.381411 -26.035109 -3.811800 0.000000 0.000000 8.038104 0.000000 0.000000 0.000000 77.346603 -1.119503 16.221600 -18.248301 28.473900 -4.667000 0.000000 0.000000 17.882797 
6.959546 95.820465 3.525492 0.376500 -6.853603 7.571503 -15.444501 -5.105000 -5.622100 0.618100 5.031402 13.998109 -0.371701 14.105204 -14.958702 1.374900 -7.420298 -20.966602 11.231398 10.529699 -16.803707 -1.857800 -8.563300 24.438492 -0.476000 -3.796000 -14.978593 -0.022000 -0.957300 2.631402 -0.903861 -5.337835 4.823833 6.471302 -1.430000 -1.913801 1.383269 -18.844107 -3.877568 3.538000 -5.741798 10.543696 0.000000 0.000000 0.000000 -85.570297 -4.338607 26.872597 16.194410 -25.783512 -3.730103 0.000000 0.000000 7.855303 0.000000 0.000000 0.000000 77.523514 -0.992799 16.124609 -18.316801 28.561007 -4.699700 0.000000 0.000000 17.681000 
7.142988 95.819336 3.518719 0.655300 -7.059005 7.684804 -15.870201 -4.911301 -5.822603 0.616900 5.026702 13.984703 -0.352501 13.954108 -14.989905 1.308201 -7.245407 -20.444416 10.763800 10.456001 -17.020697 -1.851899 -8.550501 24.399099 -0.469500 -3.590002 -14.758106 -0.021300 -0.941800 2.588700 -1.193450 -5.299859 4.713045 6.394002 -1.431901 -1.760499 1.492406 -18.766184 -4.022586 3.585801 -5.725602 10.550305 0.000000 0.000000 0.000000 -85.547417 -4.339400 26.489395 15.971400 -25.481800 -3.633600 0.000000 0.000000 8.351800 0.000000 0.000000 0.000000 77.638496 -0.814899 16.103298 -18.327497 28.574497 -4.704900 0.000000 0.000000 17.763901 
7.325302 95.822723 3.473564 0.758801 -7.385203 7.653000 -16.132805 -4.774503 -5.819200 0.616400 5.024700 13.979001 -0.360900 14.077603 -15.089005 1.278601 -7.165900 -20.207912 10.501500 10.765700 -16.983500 -1.841501 -8.527804 24.329208 -0.458000 -3.708699 -14.684300 -0.021700 -0.950100 2.611400 -1.293611 -5.243219 4.896088 6.501303 -1.404900 -1.952900 1.237148 -18.572781 -3.928129 3.668001 -5.677503 10.611204 0.000000 0.000000 0.000000 -85.668098 -4.228300 26.172501 15.698503 -25.110107 -3.516999 0.000000 0.000000 8.689800 0.000000 0.000000 0.000000 77.452904 -0.900198 16.230705 -18.211510 28.427210 -4.649503 0.000000 0.000000 18.365898 
7.511003 95.835136 3.423893 0.742800 -7.487000 7.719903 -16.212601 -4.671100 -6.005300 0.620200 5.040003 14.022604 -0.345201 13.967102 -15.140611 1.246600 -7.079100 -19.949900 10.369505 10.935605 -17.006409 -1.822001 -8.485104 24.197601 -0.456400 -3.766904 -14.701099 -0.027500 -1.069800 2.940902 -1.221428 -5.262701 5.018540 6.328499 -1.417800 -1.860300 1.478052 -18.493473 -4.189217 3.517001 -5.642502 10.591705 0.000000 0.000000 0.000000 -85.626709 -4.559898 25.793005 15.395797 -24.694494 -3.389598 0.000000 0.000000 8.902103 0.000000 0.000000 0.000000 77.565346 -0.824601 16.299904 -18.402601 28.669617 -4.740803 0.000000 0.000000 18.203506 
7.698962 95.853203 3.447600 0.803300 -7.638307 7.870503 -16.413700 -4.520202 -6.242200 0.626500 5.064800 14.093404 -0.333701 13.906005 -15.215807 1.244901 -7.074404 -19.936003 10.146098 10.838405 -17.117916 -1.794000 -8.423198 24.006903 -0.441300 -3.662600 -14.430507 -0.030500 -1.127700 3.100301 -1.122856 -5.216291 4.851571 6.181705 -1.406901 -1.828900 1.578280 -18.407318 -4.002515 3.639699 -5.628603 10.547604 0.000000 0.000000 0.000000 -85.633507 -4.544901 25.980116 15.254399 -24.499310 -3.330701 0.000000 0.000000 8.496500 0.000000 0.000000 0.000000 77.474289 -0.909899 16.526300 -18.514299 28.810698 -4.794497 0.000000 0.000000 17.942698 
7.845716 95.877472 3.393978 0.667800 -7.898096 7.943797 -16.347000 -4.234303 -6.538402 0.639500 5.116202 14.240400 -0.322800 13.797000 -15.188900 1.253901 -7.099202 -20.009604 10.171902 11.162204 -17.092005 -1.762100 -8.351898 23.788095 -0.431200 -3.775402 -14.369007 -0.028900 -1.096900 3.015501 -0.943110 -5.251466 5.003004 6.279398 -1.403300 -2.021600 1.551172 -18.211849 -3.704654 3.793300 -5.588798 10.613200 0.000000 0.000000 0.000000 -85.860703 -4.325600 25.761801 15.281806 -24.537302 -3.342100 0.000000 0.000000 8.216099 0.000000 0.000000 0.000000 77.236099 -1.001602 17.063608 -18.667601 29.003599 -4.868599 0.000000 0.000000 17.810101 
8.021822 95.892143 3.321165 0.735200 -8.180509 8.048306 -16.547009 -4.085802 -6.784602 0.645900 5.141303 14.312004 -0.323001 13.855407 -15.296912 1.252401 -7.095105 -19.997314 9.921000 11.344500 -17.291599 -1.749900 -8.324503 23.704206 -0.408800 -3.829400 -14.097207 -0.023400 -0.987400 2.714200 -0.980266 -5.228141 5.181675 6.257904 -1.397601 -2.024700 1.814526 -18.022161 -3.568743 3.826401 -5.545002 10.752707 0.000000 0.000000 0.000000 -85.757202 -4.569999 26.051699 15.229401 -24.464699 -3.320299 0.000000 0.000000 7.890303 0.000000 0.000000 0.000000 77.183739 -0.806400 17.168106 -18.772902 29.135515 -4.919802 0.000000 0.000000 18.006502 
8.171398 95.890450 3.291250 0.883500 -8.434400 8.124599 -16.836000 -3.956802 -6.920903 0.646900 5.145204 14.323307 -0.325600 13.886300 -15.312801 1.229601 -7.032499 -19.811800 9.615305 11.395806 -17.498699 -1.756201 -8.338607 23.747309 -0.401700 -3.830801 -13.998307 -0.012300 -0.716200 1.968202 -1.078964 -5.039342 5.231921 6.165900 -1.347000 -2.015500 2.140461 -18.060547 -3.140908 3.790999 -5.564002 11.014200 0.000000 0.000000 0.000000 -85.606316 -4.684101 26.867804 15.223605 -24.456608 -3.318000 0.000000 0.000000 7.550107 0.000000 0.000000 0.000000 77.132339 -0.805501 17.171602 -18.917410 29.315903 -4.990304 0.000000 0.000000 17.999001 
8.314766 95.886505 3.240450 1.035800 -8.716400 8.277300 -17.104609 -3.800401 -7.253803 0.655401 5.178403 14.418002 -0.326601 13.892508 -15.309108 1.232100 -7.039301 -19.831905 9.307300 11.395802 -17.862297 -1.755700 -8.337503 23.744003 -0.385500 -3.650699 -13.644506 -0.010700 -0.668000 1.835702 -1.201599 -5.125682 5.218515 6.309402 -1.364200 -2.134702 2.223832 -17.973444 -2.323539 3.891302 -5.552403 11.157611 0.000000 0.000000 0.000000 -85.727905 -4.525601 27.040409 15.438101 -24.752808 -3.407301 0.000000 0.000000 7.531903 0.000000 0.000000 0.000000 76.874496 -0.786100 17.497999 -19.075708 29.512627 -5.068101 0.000000 0.000000 18.110800 
8.445716 95.879730 3.176668 1.022500 -9.160194 8.362505 -17.220791 -3.626901 -7.370698 0.654900 5.176402 14.412415 -0.346601 14.127706 -15.427907 1.237800 -7.054904 -19.878107 9.160308 11.837408 -18.010408 -1.752299 -8.329899 23.720798 -0.370200 -3.781002 -13.514304 -0.018000 -0.867400 2.384001 -1.167182 -5.021566 5.339491 6.353000 -1.333700 -2.134401 2.497838 -18.022591 -1.554242 3.928601 -5.576102 11.348300 0.000000 0.000000 0.000000 -85.796326 -4.708000 27.391804 15.616815 -24.998302 -3.482403 0.000000 0.000000 7.107200 0.000000 0.000000 0.000000 76.687500 -0.643500 17.719807 -19.309900 29.802015 -5.184002 0.000000 0.000000 18.272499 
8.573279 95.903435 3.126433 1.130300 -9.656200 8.451800 -17.481110 -3.384301 -7.466400 0.644300 5.135101 14.294298 -0.370401 14.349508 -15.464314 1.239400 -7.059600 -19.892008 8.860201 12.209906 -18.158003 -1.754401 -8.334506 23.734806 -0.367900 -3.595398 -13.351500 -0.029900 -1.117000 3.070901 -1.221813 -4.885571 5.442163 6.370502 -1.297100 -2.106602 2.715780 -18.176445 -0.592818 3.916300 -5.629003 11.692706 0.000000 0.000000 0.000000 -85.709610 -4.725205 28.188309 15.962907 -25.470404 -3.630001 0.000000 0.000000 6.923300 0.000000 0.000000 0.000000 76.490601 -0.508500 18.007313 -19.670401 30.243204 -5.364302 0.000000 0.000000 18.432907 
8.674879 95.915291 3.028785 1.258400 -9.984704 8.539900 -17.703197 -3.132800 -7.675200 0.638200 5.111300 14.226200 -0.377901 14.367607 -15.374203 1.262500 -7.122501 -20.078714 8.596498 12.374106 -18.454407 -1.763501 -8.355105 23.798004 -0.366300 -3.570000 -13.310802 -0.029400 -1.106000 3.040402 -1.256398 -4.855585 5.664263 6.338800 -1.280900 -2.274202 2.903901 -18.450644 0.552177 3.848399 -5.707000 12.000606 0.000000 0.000000 0.000000 -85.578407 -4.841900 29.282404 16.102407 -25.659302 -3.690204 0.000000 0.000000 6.282600 0.000000 0.000000 0.000000 76.392502 -0.449499 18.209299 -20.062614 30.717724 -5.563305 0.000000 0.000000 18.788099 
8.774784 95.898926 2.932830 1.280901 -10.392104 8.858102 -17.793501 -2.927900 -8.198500 0.643000 5.129902 14.279305 -0.388700 14.402400 -15.260607 1.277200 -7.162304 -20.197111 8.369696 12.783002 -18.968206 -1.782100 -8.396697 23.925800 -0.359700 -3.446901 -13.128008 -0.040800 -1.304300 3.586400 -1.090026 -4.652823 5.631589 6.359903 -1.218501 -2.306201 3.018453 -18.748386 1.794770 3.940102 -5.810201 12.376404 0.000000 0.000000 0.000000 -85.565399 -5.195302 30.262300 16.285702 -25.906511 -3.769903 0.000000 0.000000 6.284700 0.000000 0.000000 0.000000 76.127701 -0.283001 18.231899 -20.411211 31.134602 -5.742499 0.000000 0.000000 18.947599 
8.854370 95.869011 2.818249 1.506201 -10.928502 8.995199 -18.121504 -2.799900 -8.353502 0.625100 5.059502 14.078403 -0.426001 14.705811 -15.240697 1.266200 -7.132600 -20.108700 7.939104 13.209897 -19.506908 -1.838303 -8.520905 24.307709 -0.354500 -3.335802 -12.975606 -0.043900 -1.352000 3.717998 -1.218010 -4.722868 5.850286 6.580602 -1.220000 -2.595701 2.753988 -18.935059 3.391984 3.925298 -5.865799 12.629700 0.000000 0.000000 0.000000 -85.587410 -5.153895 31.097591 16.589994 -26.314089 -3.903798 0.000000 0.000000 5.730802 0.000000 0.000000 0.000000 75.706909 -0.307200 18.963001 -21.067493 31.907000 -6.085601 0.000000 0.000000 18.837902 
